<?xml version="1.0" encoding="iso-8859-1"?>
<!-- Generator: Adobe Illustrator 19.0.0, SVG Export Plug-In . SVG Version: 6.00 Build 0)  -->
<svg version="1.1" id="Capa_1" xmlns="http://www.w3.org/2000/svg" xmlns:xlink="http://www.w3.org/1999/xlink" x="0px" y="0px"
	 viewBox="0 0 511.999 511.999" style="enable-background:new 0 0 511.999 511.999;" xml:space="preserve">
<path style="fill:#A38DCE;" d="M333.306,328.14c6.66-5.875,10.866-14.467,10.866-24.047c0-17.708-14.355-32.063-32.063-32.063
	s-32.063,14.355-32.063,32.063h-48.094c0-17.708-14.355-32.063-32.063-32.063s-32.063,14.355-32.063,32.063
	c0,9.58,4.206,18.171,10.866,24.047c-6.66,5.875-10.866,14.467-10.866,24.047c0,17.708,14.355,32.063,32.063,32.063
	s32.063-14.355,32.063-32.063h48.094c0,17.708,14.355,32.063,32.063,32.063s32.063-14.355,32.063-32.063
	C344.172,342.608,339.966,334.016,333.306,328.14z"/>
<path style="fill:#8C70C2;" d="M328.141,368.219c-15.512,0-28.451-11.016-31.421-25.651c-0.758-3.731-4.038-6.412-7.845-6.412
	h-65.748c-3.807,0-7.088,2.68-7.845,6.412c-2.971,14.636-15.909,25.651-31.421,25.651c-4.704,0-9.166-1.021-13.191-2.841
	c5.031,11.126,16.218,18.872,29.222,18.872c17.708,0,32.063-14.355,32.063-32.063h48.094c0,17.708,14.355,32.063,32.063,32.063
	c13.004,0,24.191-7.746,29.222-18.872C337.307,367.198,332.845,368.219,328.141,368.219z"/>
<rect x="7.515" y="151.796" style="fill:#F17E97;" width="496.971" height="64.125"/>
<polygon style="fill:#F498AC;" points="7.515,215.921 432.344,215.921 464.407,183.859 432.344,151.796 7.515,151.796 "/>
<path d="M504.485,144.281H327.64v-0.501c0-12.983-10.563-23.546-23.546-23.546h-96.188c-12.983,0-23.546,10.563-23.546,23.546v0.501
	H84.164c-4.15,0-7.515,3.365-7.515,7.515s3.365,7.515,7.515,7.515H184.36v17.033h-8.517c-4.15,0-7.515,3.365-7.515,7.515
	s3.365,7.515,7.515,7.515h8.517v17.033H15.029v-49.096h34.067c4.15,0,7.515-3.365,7.515-7.515s-3.365-7.515-7.515-7.515H7.515
	c-4.15,0-7.515,3.365-7.515,7.515v64.125c0,4.15,3.365,7.515,7.515,7.515H184.36v0.501c0,12.983,10.563,23.546,23.546,23.546h40.579
	v48.595c0,0.169,0.014,0.335,0.025,0.501h-9.759c-3.52-18.243-19.606-32.063-38.862-32.063c-21.823,0-39.577,17.755-39.577,39.577
	c0,8.754,2.91,17.195,8.154,24.047c-5.244,6.852-8.154,15.293-8.154,24.047c0,21.823,17.755,39.577,39.577,39.577
	c19.255,0,35.342-13.82,38.862-32.063h34.496c3.52,18.243,19.606,32.063,38.862,32.063c21.823,0,39.577-17.755,39.577-39.577
	c0-8.754-2.91-17.195-8.154-24.047c5.244-6.852,8.154-15.293,8.154-24.047c0-21.823-17.755-39.577-39.577-39.577
	c-19.255,0-35.342,13.82-38.862,32.063h-9.759c0.011-0.166,0.025-0.332,0.025-0.501v-48.595h40.579
	c12.983,0,23.546-10.563,23.546-23.546v-0.501h176.845c4.15,0,7.515-3.365,7.515-7.515v-64.125
	C512,147.646,508.635,144.281,504.485,144.281z M280.047,311.608c4.15,0,7.515-3.365,7.515-7.515
	c0-13.535,11.013-24.548,24.548-24.548s24.548,11.013,24.548,24.548c0,7.035-3.034,13.746-8.323,18.411
	c-3.341,2.947-3.341,8.324,0,11.271c5.289,4.666,8.323,11.376,8.323,18.411c0,13.535-11.013,24.548-24.548,24.548
	s-24.548-11.011-24.548-24.547c0-4.15-3.365-7.515-7.515-7.515h-48.094c-4.15,0-7.515,3.365-7.515,7.515
	c0,13.535-11.013,24.548-24.548,24.548c-13.535,0-24.548-11.012-24.548-24.548c0-7.035,3.034-13.746,8.323-18.411
	c3.341-2.947,3.341-8.324,0-11.271c-5.289-4.666-8.323-11.377-8.323-18.412c0-13.535,11.012-24.548,24.548-24.548
	c13.535,0,24.548,11.013,24.548,24.548c0,4.15,3.365,7.515,7.515,7.515H280.047z M199.389,143.78c0-4.696,3.82-8.517,8.517-8.517
	h96.188c4.696,0,8.517,3.82,8.517,8.517v0.501H199.389V143.78z M199.389,191.373h24.548c4.15,0,7.515-3.365,7.515-7.515
	s-3.365-7.515-7.515-7.515h-24.548v-17.033h113.221v49.096H199.389V191.373z M312.611,223.937c0,4.696-3.82,8.517-8.517,8.517
	h-96.188c-4.696,0-8.517-3.82-8.517-8.517v-0.501h113.221V223.937z M327.64,208.407v-49.096h101.592l24.548,24.548l-24.548,24.548
	H327.64z M496.971,208.407h-46.485l19.235-19.235c2.935-2.935,2.935-7.693,0-10.627l-19.235-19.235h46.485V208.407z"/>
<circle cx="368.219" cy="183.859" r="7.515"/>
<circle cx="272.532" cy="183.859" r="7.515"/>
<circle cx="415.812" cy="183.859" r="7.515"/>
<g>
</g>
<g>
</g>
<g>
</g>
<g>
</g>
<g>
</g>
<g>
</g>
<g>
</g>
<g>
</g>
<g>
</g>
<g>
</g>
<g>
</g>
<g>
</g>
<g>
</g>
<g>
</g>
<g>
</g>
</svg>
